<?xml version="1.0" standalone="no"?>
<!DOCTYPE svg PUBLIC "-//W3C//DTD SVG 20010904//EN"
 "http://www.w3.org/TR/2001/REC-SVG-20010904/DTD/svg10.dtd">
<svg version="1.0" xmlns="http://www.w3.org/2000/svg"
 width="1666.000000pt" height="1666.000000pt" viewBox="0 0 1666.000000 1666.000000"
 preserveAspectRatio="xMidYMid meet">
<metadata>
Created by potrace 1.11, written by Peter Selinger 2001-2013
</metadata>
<g transform="translate(0.000000,1666.000000) scale(0.100000,-0.100000)"
fill="#000000" stroke="none">
<path d="M8460 16330 c-30 -4 -84 -11 -120 -14 -152 -17 -419 -93 -585 -166
-22 -10 -68 -30 -102 -44 -209 -87 -287 -136 -434 -271 -233 -212 -330 -367
-589 -930 -25 -56 -80 -209 -80 -225 0 -6 -20 -61 -43 -123 -51 -130 -168
-484 -192 -575 -28 -111 -103 -465 -115 -547 -7 -44 -13 -87 -15 -95 -1 -8 -8
-62 -16 -120 -15 -124 -21 -132 -145 -194 -266 -133 -614 -433 -810 -694 -121
-164 -255 -390 -311 -527 -7 -17 -44 -106 -83 -199 -38 -93 -70 -180 -70 -193
0 -20 -13 -57 -26 -71 -1 -2 -24 11 -50 29 -101 69 -241 95 -380 69 -138 -26
-211 -75 -274 -185 -17 -30 -35 -55 -38 -55 -4 0 -15 7 -25 15 -10 7 -41 19
-68 25 -41 10 -61 9 -118 -5 -54 -13 -77 -14 -107 -6 -44 12 -116 14 -165 4
-33 -6 -128 -91 -160 -142 -11 -17 -28 -25 -68 -32 -90 -14 -121 -44 -171
-163 -11 -27 -34 -66 -52 -88 -65 -82 -73 -153 -28 -265 26 -66 39 -133 25
-133 -3 0 -40 10 -82 22 -117 33 -294 31 -380 -4 -67 -28 -141 -76 -188 -121
-16 -16 -48 -37 -70 -47 -22 -10 -62 -36 -90 -57 -44 -34 -55 -50 -96 -148
-25 -61 -65 -155 -88 -210 -23 -55 -69 -153 -101 -218 -56 -110 -83 -160 -181
-327 -54 -93 -81 -157 -81 -196 0 -42 20 -130 38 -166 10 -18 14 -70 14 -175
0 -179 15 -258 70 -371 67 -135 194 -255 352 -333 37 -18 70 -39 73 -46 7 -21
-31 -93 -73 -138 -207 -218 -278 -452 -184 -605 25 -41 112 -141 177 -203 142
-138 393 -302 660 -432 193 -94 205 -99 360 -152 232 -79 447 -132 725 -178
160 -27 461 -25 567 4 56 15 98 52 131 115 31 61 69 171 78 232 9 60 24 80 52
65 12 -6 22 -18 22 -26 0 -8 3 -15 8 -15 4 0 22 -26 39 -57 39 -70 86 -121
127 -138 48 -20 231 -56 285 -57 61 0 86 13 99 52 7 19 18 30 30 30 66 0 252
-109 497 -292 178 -133 306 -270 468 -500 124 -177 120 -170 112 -237 -3 -31
-8 -76 -11 -101 -5 -40 -26 -179 -41 -265 -3 -16 -27 -124 -54 -240 -65 -275
-80 -351 -129 -650 -29 -178 -51 -315 -85 -514 -8 -46 -17 -123 -21 -170 -3
-47 -8 -102 -10 -121 -5 -46 -5 -467 0 -505 2 -16 7 -66 11 -110 11 -132 43
-299 76 -392 66 -189 204 -399 321 -491 125 -98 112 -72 119 -228 3 -82 11
-152 19 -171 13 -29 12 -36 -12 -80 -32 -60 -36 -86 -53 -334 -6 -88 -21 -157
-48 -220 -16 -35 -15 -36 40 -148 81 -165 81 -167 -8 -303 -85 -131 -124 -234
-134 -356 l-7 -82 2129 0 2128 0 0 288 c-1 289 6 496 15 505 3 3 37 8 75 11
248 22 267 27 805 201 309 101 515 165 527 165 6 0 14 -11 17 -25 17 -67 110
-125 200 -125 92 0 278 65 314 110 17 20 18 20 60 4 37 -15 52 -16 106 -6 93
18 180 47 283 97 98 48 127 76 138 138 6 30 12 37 30 37 99 0 193 93 248 245
l25 70 73 26 c183 64 872 398 1109 538 80 46 195 114 255 149 61 36 178 101
260 145 83 44 220 121 305 172 85 50 176 104 203 119 26 15 54 37 62 49 35 54
39 301 10 657 -2 30 -7 98 -10 150 -3 52 -8 118 -10 145 -2 28 -7 84 -10 125
-23 279 -52 505 -91 719 -51 283 -40 240 -114 451 -32 91 -61 187 -64 214 -9
61 -13 70 -94 181 -158 217 -342 413 -461 490 -142 92 -358 177 -458 180 -34
1 -104 -4 -155 -12 -114 -18 -965 -222 -1103 -264 -55 -17 -146 -44 -203 -59
l-102 -29 -13 22 c-7 12 -19 35 -27 51 -9 17 -39 43 -75 63 -56 32 -64 34
-130 29 -67 -5 -71 -4 -91 22 -229 291 -269 338 -478 565 -50 54 -92 102 -94
107 -2 5 35 -8 81 -30 73 -33 100 -40 198 -49 63 -6 122 -11 131 -11 10 0 33
-14 52 -30 47 -42 99 -58 176 -54 136 6 264 69 338 167 47 63 132 202 132 216
0 17 -33 28 -72 24 -30 -3 -37 -1 -43 16 -8 26 -43 28 -86 5 -53 -27 -269 -21
-371 10 -44 13 -67 24 -173 86 -22 13 -87 48 -145 77 -97 51 -109 54 -155 49
-159 -18 -205 -18 -205 -3 0 22 121 259 180 352 27 44 54 90 59 101 5 12 49
86 97 165 48 79 137 230 197 334 121 209 231 389 257 420 9 11 45 67 80 125
35 58 99 158 143 223 76 112 79 120 74 161 -6 39 -2 50 42 117 48 74 123 195
303 487 54 86 102 164 108 172 5 8 38 60 72 115 34 55 85 132 113 170 29 39
104 142 167 230 281 393 326 452 417 550 25 28 89 108 141 177 92 124 95 126
140 132 90 12 140 69 140 158 -1 93 -93 138 -187 89 -49 -25 -73 -70 -73 -139
0 -67 -9 -107 -29 -129 -9 -10 -45 -56 -81 -103 -64 -83 -85 -109 -125 -154
-48 -54 -106 -128 -193 -245 -113 -155 -273 -377 -287 -399 -5 -10 -35 -51
-66 -92 -30 -41 -86 -122 -123 -180 -95 -146 -107 -165 -157 -250 -47 -81
-295 -475 -362 -577 -23 -34 -51 -65 -62 -68 -45 -12 -120 -101 -245 -290 -50
-77 -102 -151 -114 -165 -12 -14 -38 -50 -58 -80 -20 -30 -82 -125 -138 -210
-164 -247 -208 -323 -359 -612 -77 -148 -238 -429 -260 -455 -12 -13 -85 2
-168 35 -58 24 -89 30 -150 31 -30 1 -43 5 -43 15 0 22 -25 37 -118 68 -112
38 -229 90 -317 143 -38 23 -110 63 -160 90 -49 27 -128 74 -175 105 -139 92
-171 99 -239 55 l-42 -28 -87 28 c-48 15 -181 59 -297 97 l-210 69 -69 70
c-79 80 -217 175 -361 247 -123 62 -185 78 -300 81 -49 1 -92 4 -94 7 -12 11
199 284 219 284 5 0 28 -16 52 -35 111 -89 249 -137 401 -138 229 -2 361 23
459 89 75 50 306 289 347 357 57 98 64 127 64 292 1 87 -5 175 -12 210 -16 75
-141 332 -216 445 -55 84 -56 85 -33 94 119 48 155 74 277 196 135 136 304
343 378 460 88 142 219 447 242 565 37 187 40 222 37 460 -4 247 -11 306 -61
540 -66 302 -118 424 -312 717 -132 201 -241 320 -458 503 -135 113 -253 191
-407 270 -92 47 -118 64 -118 80 1 11 16 61 36 110 127 326 210 590 284 898
35 151 35 277 -3 442 -47 203 -90 287 -243 472 -73 89 -323 335 -378 373 -116
79 -385 180 -541 204 -100 14 -291 18 -375 6z m-3072 -7827 c50 -65 121 -156
158 -203 113 -144 119 -155 104 -191 -14 -34 -53 -64 -70 -54 -24 15 -119 6
-160 -15 -23 -12 -43 -20 -44 -18 -1 2 -14 23 -28 48 -14 25 -60 82 -102 128
-42 45 -76 86 -76 91 0 22 115 331 123 331 2 0 45 -53 95 -117z m5469 -2367
c4 -8 35 -30 68 -48 43 -25 60 -40 58 -54 -2 -35 -107 -275 -114 -262 -7 13
-15 61 -24 138 -3 25 -9 83 -15 130 -5 46 -10 90 -10 97 0 18 27 16 37 -1z
m343 -447 c14 -23 44 -66 67 -97 43 -57 53 -82 33 -82 -6 0 -72 -22 -147 -50
-75 -27 -139 -47 -141 -45 -7 6 146 315 156 315 4 0 18 -19 32 -41z"/>
</g>
</svg>
